<svg id="Layer_1" data-name="Layer 1" xmlns="http://www.w3.org/2000/svg" viewBox="0 0 997.83 997.83"><defs><style>.cls-1{fill:#fff;}.cls-2{fill:#ed1c24;}</style></defs><circle class="cls-1" cx="498.91" cy="498.91" r="498.91"/><path d="M298.1,119.73C440.73,29,649.31,24.56,804.36,129.38c-5.36,2.79-9.5,5.67-14.09,7.23-64.45,21.88-128.9,43.75-193.53,65.09-7.09,2.34-15.94,3.68-22.82,1.63C482.94,176.2,392.17,148.37,298.1,119.73Z" transform="translate(-41.09 -41.09)"/><path d="M785.22,960.63C669.16,1055,401.89,1049,278.68,949.37c8.64-3.13,15.53-5.81,22.54-8.15C362.15,920.9,423,900.42,484.13,880.6c8.6-2.79,19.16-5.3,27.31-2.88C601.88,904.48,692,932.24,785.22,960.63Z" transform="translate(-41.09 -41.09)"/><path d="M83.08,424.65c58.39-19.42,110-36.71,161.63-53.72q291.18-95.87,582.42-191.56c37.28-12.24,45-9,68.68,29.53-30.17,10.3-59.78,20.65-89.55,30.53q-310.15,102.85-620.52,205c-12.38,4.05-27.71,2.79-40.83,0C126.05,440.49,108,432.86,83.08,424.65Z" transform="translate(-41.09 -41.09)"/><path d="M187.54,871.59c73.5-24.68,144.68-48.85,216.05-72.47C559.36,747.55,715.5,697.05,870.83,644.18c31-10.54,59.18-13.43,89.3-1,10.69,4.41,22.33,6.52,40.76,11.72-14.58,5.62-22.7,9.16-31.07,11.92Q615.19,783.58,260.51,900.22C219.68,913.67,215.94,912.45,187.54,871.59Z" transform="translate(-41.09 -41.09)"/><path d="M826.86,603c-10,4.32-15.35,7.16-21,9q-310.48,102.27-621,204.34c-41.88,13.75-43.55,12.7-62.88-32.53,8.66-3.31,17.12-6.93,25.84-9.81C339.63,710.64,531.42,647,723.59,584.53c13.85-4.51,30.89-2.75,45.68.08C787.47,588.1,804.87,595.77,826.86,603Z" transform="translate(-41.09 -41.09)"/><path d="M962.56,296.81c-8.74,3.21-17.29,6.65-26,9.52q-287.79,94.53-575.6,189c-36.91,12.16-67-9.62-100.44-20.73q88.35-29.22,176.7-58.43Q668.52,340,899.85,264C941.45,250.31,943,251.23,962.56,296.81Z" transform="translate(-41.09 -41.09)"/><path class="cls-2" d="M477.86,607.6c-47.61,22.37-89.8,32.9-139.78,14-79.15-30-161.27-52.17-242.15-77.61-45.17-14.22-46.16-16-34.1-67.76Z" transform="translate(-41.09 -41.09)"/><path class="cls-2" d="M610.47,469.3c23.22-7.76,46.23-16.3,69.78-22.84,7.79-2.16,17.51-.75,25.5,1.74q152.12,47.28,304,95.5c22.24,7,24.38,17.35,12.08,60.32l-411-129.75C610.66,472.61,610.57,471,610.47,469.3Z" transform="translate(-41.09 -41.09)"/><path class="cls-2" d="M478.26,237c-47.17,18.54-88.2,35.76-137.35,14.63-46.76-20.1-97.21-31.63-146.63-47.11,25.28-40.84,36.63-45.21,79.24-32Q362,199.95,450.38,227.46C458.52,230,466.52,233,478.26,237Z" transform="translate(-41.09 -41.09)"/><path class="cls-2" d="M894.34,877.47c-14.66,13.94-24.88,25-36.62,34.17-4.82,3.74-13.77,6-19.43,4.27-76.53-23.15-152.82-47.13-233.75-72.32,47.23-17.94,87.29-36.2,135.9-15.58C788.21,848.28,839.5,860.26,894.34,877.47Z" transform="translate(-41.09 -41.09)"/><path class="cls-2" d="M58.7,593.72l237.52,75.92c-29.67,9.65-52.59,17.75-75.93,24.32-7,2-15.59,1.08-22.7-1C165,683.28,133,671,100.05,663.06,74.68,657,61.51,644.41,61.59,618.17,61.61,611.35,60,604.53,58.7,593.72Z" transform="translate(-41.09 -41.09)"/><path class="cls-2" d="M1026.63,487.58,791.06,411.63c46.75-18.9,87.3-36.68,133.22-13.05,18.73,9.65,40.19,15,61,19.34,24.66,5.16,37.22,18.07,37.48,43.35C1022.85,468.21,1024.73,475.13,1026.63,487.58Z" transform="translate(-41.09 -41.09)"/><path d="M662.17,546.75c-45.7,21.9-89.71,44.77-141.79,18.76-30-15-63.9-22.23-97.63-33.48,44.72-29,89-34.76,135.51-18.95,17.26,5.87,34.63,11.45,52,17.07S644.86,541.22,662.17,546.75Z" transform="translate(-41.09 -41.09)"/><path class="cls-2" d="M795.64,783.67c55.62-36.79,110-28.14,164.11-.78-7.78,38.2-21.1,46.52-56.81,35.06S831.44,795.1,795.64,783.67Z" transform="translate(-41.09 -41.09)"/><path class="cls-2" d="M289,296.74c-57.09,36.72-111.29,28.26-167.92-1.42,7-11.12,13-22.89,21.29-32.79,3.6-4.31,12.72-8,17.7-6.54C202.89,268.74,245.31,282.73,289,296.74Z" transform="translate(-41.09 -41.09)"/></svg>